<svg xmlns="http://www.w3.org/2000/svg" viewBox="0 0 512 512">
  <rect width="512" height="512" rx="116" fill="#020617"/>
  <circle cx="256" cy="256" r="176" fill="#10b981" opacity="0.14"/>
  <path fill="#10b981" d="M144 324c0-19.9 16.1-36 36-36h152c19.9 0 36 16.1 36 36s-16.1 36-36 36H180c-19.9 0-36-16.1-36-36Zm0-136c0-19.9 16.1-36 36-36h152c19.9 0 36 16.1 36 36s-16.1 36-36 36H180c-19.9 0-36-16.1-36-36Z"/>
  <path fill="#ecfeff" d="M204 188c0-19.9 16.1-36 36-36h92c19.9 0 36 16.1 36 36s-16.1 36-36 36h-92c-19.9 0-36-16.1-36-36Zm-60 136c0-19.9 16.1-36 36-36h92c19.9 0 36 16.1 36 36s-16.1 36-36 36h-92c-19.9 0-36-16.1-36-36Z" opacity="0.95"/>
</svg>
